{"title":"Unstoppable (2010).iso","uid":6278167,"size":3716874240,"categoryP":"video","categoryS":"movies_dvdr","magnet":"?xt=urn:btih:cfb13d67b56f488bb987991454171193e207e56b&amp;dn=Unstoppable+%282010%29.iso&amp;tr=udp%3A%2F%2Ftracker.openbittorrent.com%3A80&amp;tr=udp%3A%2F%2Fopen.demonii.com%3A1337&amp;tr=udp%3A%2F%2Ftracker.coppersurfer.tk%3A6969&amp;tr=udp%3A%2F%2Fexodus.desync.com%3A6969","seeders":0,"leechers":1,"uploader":"avd17","files":1,"time":1301339438,"description":"it's an ISO file\n\nGeneral\nComplete name                    : D:\\Torrents\\Unstoppable (2010).iso\nFormat                           : MPEG-PS\nFile size                        : 3.46 GiB\nDuration                         : 1h 34mn\nOverall bit rate                 : 5 246 Kbps\n\nVideo\nID                               : 224 (0xE0)\nFormat                           : MPEG Video\nFormat version                   : Version 2\nFormat profile                   : Main@Main\nFormat settings, Matrix          : Default\nDuration                         : 1h 34mn\nBit rate mode                    : Variable\nBit rate                         : 4 846 Kbps\nWidth                            : 720 pixels\nHeight                           : 576 pixels\nDisplay aspect ratio             : 16:9\nFrame rate                       : 25.000 fps\nStandard                         : PAL\nColorimetry                      : 4:2:0\nScan type                        : Progressive\nScan order                       : Top Field First\nBits/(Pixel*Frame)               : 0.467\nStream size                      : 3.20 GiB (92%)\n\nAudio\nID                               : 128 (0x80)\nFormat                           : AC-3\nFormat/Info                      : Audio Coding 3\nDuration                         : 1h 34mn\nBit rate mode                    : Constant\nBit rate                         : 192 Kbps\nChannel(s)                       : 2 channels\nChannel positions                : L R\nSampling rate                    : 48.0 KHz\nStream size                      : 130 MiB (4%)\n\n\n\nNO SUBS!!!\n\n\n\nmuch fun with this cool movie!\n\nthe AvD Team","torrent":{"xt":"urn:btih:cfb13d67b56f488bb987991454171193e207e56b","amp;dn":"Unstoppable+%282010%29.iso","amp;tr":["udp%3A%2F%2Ftracker.openbittorrent.com%3A80","udp%3A%2F%2Fopen.demonii.com%3A1337","udp%3A%2F%2Ftracker.coppersurfer.tk%3A6969","udp%3A%2F%2Fexodus.desync.com%3A6969"],"infoHash":"cfb13d67b56f488bb987991454171193e207e56b","infoHashBuffer":{"type":"Buffer","data":[207,177,61,103,181,111,72,139,185,135,153,20,84,23,17,147,226,7,229,107]},"announce":[],"urlList":[]}}